# xmcd CD database file
#
# Track frame offsets:
#	150
#	23460
#	41169
#	68209
#	99599
#	131152
#	153900
#	179592
#	201975
#	225635
#	252932
#	283765
#	309184
#
# Disc length: 4439 seconds
#
# Revision: 0
# Processed by: cddbd v1.5.2PL0 Copyright (c) Steve Scherf et al.
# Submitted via: CDex 1.70beta2
#
DISCID=b311550d
DTITLE=和泉宏隆トリオ - LIVE 0221
DYEAR=2007
DGENRE=Jazz
TTITLE0=HEART LAND
TTITLE1=PRELUDE
TTITLE2=MOON PALACE
TTITLE3=WHITE MANE
TTITLE4=NOVEMBER RAIN
TTITLE5=GOLDENLAND
TTITLE6=ELEVEN DAYS
TTITLE7=LOVE BALLAD
TTITLE8=ANGELITE
TTITLE9=SILVERGIRL IN THE MIST
TTITLE10=LEAVE ME ALONE
TTITLE11=TAKARAJIMA
TTITLE12=FORGOTTEN SAGA
EXTD=YEAR: 2007
EXTT0=
EXTT1=
EXTT2=
EXTT3=
EXTT4=
EXTT5=
EXTT6=
EXTT7=
EXTT8=
EXTT9=
EXTT10=
EXTT11=
EXTT12=
PLAYORDER=
